<svg width="512" height="512" viewBox="0 0 512 512" fill="none" xmlns="http://www.w3.org/2000/svg">
<path d="M296.646 40C313.225 40.0002 327.099 51.5822 330.619 67.0967H421C429.284 67.0967 436 73.8124 436 82.0967V105.258C436 109.124 432.866 112.258 429 112.258H83C79.134 112.258 76 109.124 76 105.258V82.0967C76 73.8124 82.7157 67.0967 91 67.0967H180.091C183.611 51.5822 197.485 40 214.064 40H296.646Z" fill="#3CCD67"/>
<path d="M383.084 449.323C381.622 462.383 370.579 472.258 357.437 472.258H154.562C141.421 472.258 130.379 462.382 128.917 449.323L92.7742 126.452H419.225L383.084 449.323ZM331.705 166.066C325.311 165.566 319.722 170.345 319.222 176.739L300.131 421.156C299.631 427.55 304.409 433.139 310.804 433.638C317.198 434.138 322.786 429.358 323.285 422.964L342.378 178.547C342.877 172.153 338.099 166.565 331.705 166.066ZM255.355 165.162C248.942 165.162 243.742 170.36 243.742 176.774V421.935C243.742 428.349 248.942 433.548 255.355 433.548C261.769 433.548 266.968 428.349 266.968 421.935V176.774C266.967 170.361 261.769 165.162 255.355 165.162ZM191.58 176.242C191.08 169.848 185.491 165.069 179.097 165.569C172.703 166.068 167.925 171.657 168.425 178.051L187.517 422.467C188.017 428.861 193.605 433.64 199.999 433.141C206.393 432.642 211.172 427.053 210.673 420.659L191.58 176.242Z" fill="#3CCD67"/>
</svg>
